<?xml version="1.0" standalone="no"?>
<!DOCTYPE svg PUBLIC "-//W3C//DTD SVG 20010904//EN"
 "http://www.w3.org/TR/2001/REC-SVG-20010904/DTD/svg10.dtd">
<svg version="1.0" xmlns="http://www.w3.org/2000/svg"
 width="700.000000pt" height="700.000000pt" viewBox="0 0 700.000000 700.000000"
 preserveAspectRatio="xMidYMid meet">
<metadata>
Created by potrace 1.14, written by Peter Selinger 2001-2017
</metadata>
<g transform="translate(0.000000,700.000000) scale(0.100000,-0.100000)"
fill="#000000" stroke="none">
<path d="M3188 6990 c-654 -63 -1267 -299 -1783 -685 -564 -423 -986 -999
-1214 -1660 -82 -235 -134 -462 -173 -745 -17 -128 -17 -672 0 -800 23 -168
52 -322 87 -460 192 -764 652 -1456 1282 -1932 477 -359 1017 -585 1608 -674
207 -31 585 -43 790 -25 454 40 848 148 1250 346 366 179 657 386 940 670 537
536 875 1210 992 1973 25 165 27 199 27 502 0 302 -2 337 -27 500 -91 595
-313 1129 -662 1595 -519 693 -1276 1172 -2115 1339 -233 47 -351 58 -640 61
-151 2 -314 0 -362 -5z m2313 -3352 c294 -381 541 -708 551 -727 40 -77 8
-167 -74 -209 -63 -32 -125 -25 -174 21 -19 18 -240 300 -492 627 l-458 594
33 51 c47 71 73 161 73 256 0 43 2 79 4 79 2 0 244 -312 537 -692z m-3468 531
c12 -6 33 -21 45 -33 13 -11 263 -360 555 -774 407 -575 534 -749 542 -738 5
7 195 354 420 770 226 416 413 756 418 756 4 0 7 -8 7 -19 0 -40 72 -161 131
-220 l60 -59 -17 -34 c-88 -172 -872 -1609 -888 -1626 -50 -57 -146 -70 -207
-29 -22 14 -225 295 -599 824 -311 441 -569 802 -575 803 -5 0 -206 -131 -447
-291 -487 -325 -482 -322 -568 -277 -32 17 -51 37 -67 68 -28 55 -29 92 -3
145 18 38 67 73 528 380 279 186 518 345 532 352 31 16 104 17 133 2z"/>
</g>
</svg>
