<svg width="24" height="24" viewBox="0 0 24 24" fill="none" xmlns="http://www.w3.org/2000/svg">
<path d="M20.3303 4.56333C18.7767 3.833 17.1156 3.30223 15.3789 3C15.1656 3.38744 14.9164 3.90856 14.7446 4.32311C12.8985 4.04416 11.0693 4.04416 9.25716 4.32311C9.08539 3.90856 8.83055 3.38744 8.61536 3C6.87681 3.30223 5.21376 3.83495 3.66019 4.5672C0.526643 9.32491 -0.322811 13.9645 0.101917 18.5381C2.18025 20.0976 4.19441 21.0449 6.17457 21.6647C6.66349 20.9887 7.09953 20.27 7.47518 19.5125C6.75975 19.2394 6.07453 18.9023 5.42707 18.511C5.59884 18.3832 5.76686 18.2495 5.92918 18.1119C9.87819 19.9678 14.1689 19.9678 18.0707 18.1119C18.235 18.2495 18.403 18.3832 18.5728 18.511C17.9235 18.9042 17.2364 19.2413 16.521 19.5145C16.8966 20.27 17.3308 20.9906 17.8216 21.6667C19.8036 21.0468 21.8197 20.0995 23.898 18.5381C24.3964 13.2361 23.0467 8.63914 20.3303 4.56333ZM8.01318 15.7254C6.82772 15.7254 5.85555 14.6134 5.85555 13.2593C5.85555 11.9052 6.80696 10.7914 8.01318 10.7914C9.21942 10.7914 10.1916 11.9033 10.1708 13.2593C10.1727 14.6134 9.21942 15.7254 8.01318 15.7254ZM15.9867 15.7254C14.8013 15.7254 13.8291 14.6134 13.8291 13.2593C13.8291 11.9052 14.7805 10.7914 15.9867 10.7914C17.193 10.7914 18.1651 11.9033 18.1444 13.2593C18.1444 14.6134 17.193 15.7254 15.9867 15.7254Z" fill="white"/>
</svg>
