<svg width="24" height="24" viewBox="0 0 24 24" fill="none" xmlns="http://www.w3.org/2000/svg">
<g clip-path="url(#clip0_38_14)">
<path d="M12.0011 0C8.74209 0 8.33309 0.0142502 7.05307 0.0725002C5.77556 0.131 4.90355 0.33325 4.14054 0.63C3.35128 0.9365 2.68178 1.3465 2.01477 2.01375C1.34726 2.68075 0.93726 3.35025 0.629756 4.13925C0.332253 4.9025 0.129751 5.77475 0.0722506 7.05175C0.015 8.33175 0 8.741 0 12C0 15.259 0.0145004 15.6668 0.072501 16.9468C0.131252 18.2243 0.333504 19.0962 0.630007 19.8592C0.93676 20.6485 1.34676 21.318 2.01402 21.985C2.68078 22.6525 3.35028 23.0635 4.13904 23.37C4.90255 23.6668 5.77481 23.869 7.05207 23.9275C8.33209 23.9857 8.74084 24 11.9996 24C15.2589 24 15.6667 23.9857 16.9467 23.9275C18.2242 23.869 19.0972 23.6668 19.8607 23.37C20.6497 23.0635 21.3182 22.6525 21.985 21.985C22.6525 21.318 23.0625 20.6485 23.37 19.8595C23.665 19.0963 23.8675 18.224 23.9275 16.947C23.985 15.667 24 15.259 24 12C24 8.741 23.985 8.332 23.9275 7.052C23.8675 5.7745 23.665 4.9025 23.37 4.1395C23.0625 3.35025 22.6525 2.68075 21.985 2.01375C21.3175 1.34625 20.65 0.93625 19.86 0.63C19.0949 0.33325 18.2224 0.131 16.9449 0.0725002C15.6649 0.0142502 15.2574 0 11.9974 0H12.0011ZM10.9246 2.1625C11.2441 2.162 11.6006 2.1625 12.0011 2.1625C15.2052 2.1625 15.5849 2.174 16.8502 2.2315C18.0202 2.285 18.6552 2.4805 19.0782 2.64475C19.6382 2.86225 20.0375 3.12225 20.4572 3.54225C20.8772 3.96225 21.1372 4.36225 21.3552 4.92225C21.5195 5.34475 21.7152 5.97975 21.7685 7.14975C21.826 8.41475 21.8385 8.79475 21.8385 11.9972C21.8385 15.1997 21.826 15.5797 21.7685 16.8447C21.715 18.0147 21.5195 18.6498 21.3552 19.0723C21.1377 19.6323 20.8772 20.031 20.4572 20.4508C20.0372 20.8708 19.6385 21.1307 19.0782 21.3482C18.6557 21.5132 18.0202 21.7082 16.8502 21.7617C15.5852 21.8192 15.2052 21.8318 12.0011 21.8318C8.79684 21.8318 8.41709 21.8192 7.15207 21.7617C5.98206 21.7077 5.34706 21.5122 4.9238 21.348C4.3638 21.1305 3.96379 20.8705 3.54379 20.4505C3.12378 20.0305 2.86378 19.6315 2.64578 19.0713C2.48153 18.6488 2.28577 18.0137 2.23252 16.8438C2.17502 15.5788 2.16352 15.1987 2.16352 11.9942C2.16352 8.78975 2.17502 8.41175 2.23252 7.14675C2.28602 5.97675 2.48153 5.34175 2.64578 4.91875C2.86328 4.35875 3.12378 3.95875 3.54379 3.53875C3.96379 3.11875 4.3638 2.85875 4.9238 2.64075C5.34681 2.47575 5.98206 2.28075 7.15207 2.227C8.25909 2.177 8.68809 2.162 10.9246 2.1595V2.1625ZM18.4067 4.155C17.6117 4.155 16.9667 4.79925 16.9667 5.5945C16.9667 6.3895 17.6117 7.0345 18.4067 7.0345C19.2017 7.0345 19.8467 6.3895 19.8467 5.5945C19.8467 4.7995 19.2017 4.1545 18.4067 4.1545V4.155ZM12.0011 5.8375C8.59784 5.8375 5.83856 8.59675 5.83856 12C5.83856 15.4032 8.59784 18.1612 12.0011 18.1612C15.4044 18.1612 18.1627 15.4032 18.1627 12C18.1627 8.59675 15.4044 5.8375 12.0011 5.8375ZM12.0011 8C14.2101 8 16.0012 9.79075 16.0012 12C16.0012 14.209 14.2101 16 12.0011 16C9.79185 16 8.00108 14.209 8.00108 12C8.00108 9.79075 9.79185 8 12.0011 8Z" fill="white"/>
</g>
<defs>
<clipPath id="clip0_38_14">
<rect width="24" height="24" fill="white"/>
</clipPath>
</defs>
</svg>
