<svg width="24" height="24" viewBox="0 0 24 24" fill="none" xmlns="http://www.w3.org/2000/svg">
<path fill-rule="evenodd" clip-rule="evenodd" d="M21.3904 4.514C22.4184 4.79077 23.2289 5.60131 23.5057 6.62931C24.0197 8.50739 23.9999 12.4217 23.9999 12.4217C23.9999 12.4217 23.9999 16.3163 23.5057 18.1943C23.2289 19.2223 22.4184 20.0329 21.3904 20.3097C19.5123 20.8039 11.9999 20.8039 11.9999 20.8039C11.9999 20.8039 4.50739 20.8039 2.60954 20.2899C1.58154 20.0131 0.771002 19.2026 0.494232 18.1746C0 16.3163 0 12.4019 0 12.4019C0 12.4019 0 8.50739 0.494232 6.62931C0.771002 5.60131 1.60131 4.771 2.60954 4.49423C4.48763 4 11.9999 4 11.9999 4C11.9999 4 19.5123 4 21.3904 4.514ZM15.8549 12.402L9.60785 16V8.80395L15.8549 12.402Z" fill="white"/>
</svg>
